<svg width="149" height="22" viewBox="0 0 149 22" fill="none" xmlns="http://www.w3.org/2000/svg">
<path d="M0.0370001 0.103516H9.805L14.763 13.6085L19.24 0.103516H29.119V3.84052H25.974V18.1595H29.119V21.8965H19.314V18.1595H21.682V3.13752L20.202 8.09552L16.28 19.2695H13.135L8.621 7.65152L7.141 3.39652L7.104 18.1595H9.546V21.8965H0V18.1595H3.145V3.84052H0.0370001V0.103516Z" fill="#242221"/>
<path d="M30.8632 21.8965V18.1595H34.5262L40.1132 3.84052H37.0052V0.103516H45.4042L52.2122 18.1595H55.5422V21.8965H45.9592V18.1595H47.9202L46.7732 14.9775H39.4102L38.2632 18.1595H40.4092V21.8965H30.8632ZM40.4832 12.0545H45.7742L43.1842 4.32152L40.4832 12.0545Z" fill="#242221"/>
<path d="M57.3066 21.8965V18.1595H60.4146V3.84052H57.3066V0.103516H67.1116C69.3563 0.103516 71.1076 0.399516 72.3656 0.991517C73.6236 1.55885 74.4993 2.38518 74.9926 3.47052C75.486 4.53118 75.7326 5.78918 75.7326 7.24452C75.7326 9.63718 75.0913 11.4379 73.8086 12.6465C72.5506 13.8305 70.5896 14.4225 67.9256 14.4225H64.7066V18.1595H66.6306V21.8965H57.3066ZM64.7436 10.7225H66.9266C67.9873 10.7225 68.826 10.6239 69.4426 10.4265C70.084 10.2292 70.5526 9.88385 70.8486 9.39052C71.1446 8.87252 71.2926 8.16952 71.2926 7.28152C71.2926 6.34418 71.12 5.62885 70.7746 5.13552C70.4293 4.64218 69.936 4.30918 69.2946 4.13652C68.6533 3.93918 67.864 3.84052 66.9266 3.84052H64.7436V10.7225ZM71.6256 21.8965L67.3336 13.9785L71.3296 13.3125L74.2526 18.1595H77.9526V21.8965H71.6256Z" fill="#242221"/>
<path d="M80.54 0.103516H90.049V3.84052H87.94V9.24252H90.678L94.674 3.84052H92.824V0.103516H102.444V3.84052H99.003L93.897 10.3155L99.632 18.1595H103.332V21.8965H92.417V18.1595H95.007L91.159 12.8315H87.94V18.1595H90.049V21.8965H80.54V18.1595H83.685V3.84052H80.54V0.103516Z" fill="#242221"/>
<path d="M106.195 0.103516H122.993L125.176 6.65252L121.661 7.83652L120.255 3.84052H113.632V8.94652H119.922V12.6465H113.632V18.1595H121.18L122.549 14.4595L126.027 15.6805L123.881 21.8965H106.158V18.1595H109.303L109.34 3.84052H106.195V0.103516Z" fill="#242221"/>
<path d="M128.298 0.103516H148.019V7.50352H144.208V3.84052H140.323L140.286 18.1595H143.431V21.8965H132.812V18.1595H135.957L135.994 3.84052H132.109V7.50352H128.298V0.103516Z" fill="#242221"/>
</svg>
